<svg viewBox="0 0 120 120" xmlns="http://www.w3.org/2000/svg" aria-label="Eperföld minimalista logó">
  <path d="M61 26C78 26 95 39 95 62C95 85 79 102 60 105C40 102 25 85 25 62C25 39 43 26 61 26Z" fill="#B6263D"/>
  <path d="M58 18C52 10 43 9 37 14C42 16 46 21 47 27" fill="#3A7D44"/>
  <path d="M62 18C69 10 78 9 84 14C79 16 75 21 74 27" fill="#3A7D44"/>
  <path d="M60 14C58 10 58 7 60 4C62 7 62 10 60 14Z" fill="#3A7D44"/>
  <circle cx="46" cy="47" r="2.2" fill="#FFECC7"/>
  <circle cx="61" cy="43" r="2.2" fill="#FFECC7"/>
  <circle cx="75" cy="49" r="2.2" fill="#FFECC7"/>
  <circle cx="40" cy="60" r="2.2" fill="#FFECC7"/>
  <circle cx="54" cy="57" r="2.2" fill="#FFECC7"/>
  <circle cx="68" cy="60" r="2.2" fill="#FFECC7"/>
  <circle cx="82" cy="63" r="2.2" fill="#FFECC7"/>
  <circle cx="46" cy="74" r="2.2" fill="#FFECC7"/>
  <circle cx="61" cy="72" r="2.2" fill="#FFECC7"/>
  <circle cx="75" cy="77" r="2.2" fill="#FFECC7"/>
  <circle cx="56" cy="88" r="2.2" fill="#FFECC7"/>
  <circle cx="68" cy="89" r="2.2" fill="#FFECC7"/>
</svg>
